<svg xmlns="http://www.w3.org/2000/svg" width="512" height="512" viewBox="0 0 512 512" version="1.1">
	<path d="M 254 42.050 C 234.662 44.456, 219.812 48.692, 203.287 56.517 C 189.974 62.820, 177.369 70.843, 166.820 79.727 C 159.085 86.240, 158 87.629, 158 91.009 C 158 92.984, 162.410 97, 164.579 97 C 165.300 97, 169.402 94.002, 173.695 90.338 C 193.317 73.590, 215.515 62.557, 241.119 56.824 C 250.091 54.815, 254.214 54.500, 271.500 54.500 C 288.817 54.500, 292.901 54.814, 301.941 56.837 C 328.443 62.769, 350.515 74.028, 370.885 92.006 C 375.867 96.403, 380.856 100, 381.971 100 C 384.823 100, 388 96.494, 388 93.346 C 388 90.562, 385.216 87.557, 373.500 77.697 C 353.633 60.978, 325.566 48.168, 298.500 43.466 C 287.407 41.539, 264.071 40.797, 254 42.050 M 75.791 87.945 C 71.163 89.414, 67.258 92.836, 65.086 97.323 C 63.156 101.310, 63 103.358, 63 124.767 C 63 138.101, 63.477 150.147, 64.125 153.201 C 65.792 161.052, 70.036 168.679, 76.894 176.153 L 83 182.807 83.022 251.153 C 83.043 315.546, 83.151 319.731, 84.896 323.500 C 88.195 330.625, 95.979 336, 103 336 C 110.021 336, 117.805 330.625, 121.104 323.500 C 122.849 319.731, 122.957 315.546, 122.978 251.153 L 123 182.807 129.140 176.153 C 136.021 168.698, 140.464 160.264, 142.060 151.631 C 142.692 148.214, 143.002 136.334, 142.816 122.668 C 142.514 100.513, 142.399 99.338, 140.200 95.800 C 135.479 88.208, 125.025 85.236, 117.327 89.298 C 114.320 90.884, 113.929 90.869, 109.827 89.008 C 104.307 86.503, 101.997 86.515, 96.028 89.083 C 91.600 90.988, 90.983 91.035, 88.842 89.634 C 85.859 87.682, 79.295 86.832, 75.791 87.945 M 420.252 90.104 C 412.463 93.960, 407.302 102.413, 403.439 117.643 C 398.707 136.294, 396.042 165.379, 396.015 198.653 L 396 217.806 402.462 224.653 L 408.925 231.500 408.984 275.500 C 409.039 316.092, 409.187 319.810, 410.890 323.500 C 417.371 337.542, 436.428 338.966, 445.500 326.087 L 448.500 321.828 448.768 213.210 L 449.035 104.592 446.546 99.505 C 441.528 89.248, 430.179 85.191, 420.252 90.104 M 255 93.426 C 231.432 98.657, 213.118 110.639, 198.636 130.302 C 183.195 151.267, 172.661 175.080, 166.866 202.120 C 165.088 210.418, 164.636 215.810, 164.611 229 C 164.573 248.754, 166.352 257.136, 173.733 272 C 177.732 280.053, 179.862 282.895, 187.712 290.655 C 207.775 310.488, 222.010 318, 239.529 318 C 248.196 318, 255.027 316.079, 261.419 311.846 C 271.255 305.331, 280.408 290.169, 285.485 271.982 C 286.946 266.747, 288.984 261.347, 290.015 259.982 C 291.857 257.541, 292.093 257.505, 304.194 257.815 C 322.549 258.284, 334.565 255.394, 345.821 247.801 C 368.046 232.810, 379.055 210.086, 376.001 185.509 C 373.255 163.414, 361.894 142.886, 340.527 121.415 C 324.328 105.137, 311.063 97.510, 291.965 93.493 C 283.465 91.705, 262.921 91.667, 255 93.426 M 77.059 101.428 C 76.196 102.469, 75.959 109.723, 76.187 128.178 C 76.549 157.436, 76.570 157.515, 87.004 168.480 C 90.154 171.791, 93.355 175.625, 94.116 177 C 95.244 179.037, 95.593 192.516, 96 249.831 C 96.485 317.993, 96.560 320.206, 98.441 321.581 C 101.210 323.605, 105.666 323.334, 108 321 C 109.961 319.039, 110 317.663, 110.006 251.250 C 110.009 206.611, 110.373 182.198, 111.071 179.683 C 111.730 177.310, 114.583 173.193, 118.610 168.805 C 129.672 156.752, 129.450 157.556, 129.813 128.178 C 130.146 101.261, 129.950 100, 125.434 100 C 120.645 100, 120 102.808, 120 123.651 C 120 144.717, 119.660 146, 114.084 146 C 108.438 146, 108 144.327, 108 122.743 C 108 101.923, 107.577 100, 103 100 C 98.417 100, 98 101.910, 98 122.916 C 98 140.803, 97.825 142.848, 96.171 144.345 C 93.928 146.375, 90.039 146.480, 87.441 144.581 C 85.643 143.267, 85.485 141.674, 85.295 122.989 C 85.157 109.355, 84.712 102.358, 83.923 101.407 C 82.412 99.587, 78.578 99.599, 77.059 101.428 M 423.287 103.250 C 415.148 112.134, 410.899 134.996, 409.021 180.025 C 407.546 215.361, 406.950 211.107, 414.471 218.897 L 420.941 225.599 421.221 271.773 C 421.499 317.798, 421.507 317.953, 423.694 320.140 C 426.659 323.103, 431.721 323.063, 434.156 320.056 C 435.922 317.874, 436 313.292, 436 211.389 C 436 106.333, 435.975 104.975, 434 103 C 431.240 100.240, 425.931 100.364, 423.287 103.250 M 261 105.132 C 254.011 106.273, 241.465 110.418, 237.285 112.967 C 233.069 115.539, 228.917 123.820, 228.271 130.948 C 227.894 135.108, 228.556 139.773, 230.883 149.338 C 234.318 163.460, 234.717 169.348, 232.585 174.452 C 228.629 183.919, 217.882 180.012, 220.829 170.178 C 221.820 166.868, 221.572 164.696, 218.994 154.139 C 217.354 147.423, 215.897 139.271, 215.756 136.025 L 215.500 130.122 213.156 132.311 C 209.354 135.861, 199.194 151.649, 193.820 162.359 C 188.196 173.565, 182.010 191.320, 179.310 204 C 177.936 210.454, 177.516 216.712, 177.565 230 C 177.624 246.155, 177.833 248.115, 180.279 255.500 C 185.400 270.960, 195.245 283.506, 206.692 289.159 C 212.323 291.940, 213.589 292.183, 220.692 291.836 C 232.676 291.252, 240.858 286.268, 245.891 276.486 C 247.026 274.279, 249.344 266.854, 251.041 259.986 C 252.738 253.119, 255.514 244.679, 257.210 241.230 C 258.906 237.782, 260.024 234.690, 259.693 234.360 C 258.493 233.160, 249.947 235.177, 245.095 237.806 C 242.361 239.288, 236.252 243.988, 231.519 248.250 C 226.786 252.512, 222.033 256, 220.957 256 C 218.149 256, 215 252.454, 215 249.292 C 215 246.041, 225.888 235.296, 235.727 228.838 L 241.954 224.751 239.535 222.849 C 235.911 219.998, 230.509 218, 226.426 218 C 221.671 218, 212.243 220.475, 205.295 223.548 C 198.732 226.451, 195.856 226.626, 193.785 224.250 C 189.189 218.974, 191.506 215.384, 202.151 211.286 C 214.257 206.627, 219.038 205.696, 228.272 206.203 C 238.068 206.741, 242.890 208.891, 250.554 216.139 C 255.580 220.893, 256.067 221.108, 265.127 222.577 C 270.282 223.412, 275.400 223.795, 276.500 223.426 C 277.600 223.058, 287.501 222.469, 298.503 222.117 C 317.948 221.495, 318.672 221.395, 324.503 218.557 C 331.663 215.072, 341.381 205.631, 345.226 198.425 C 355.337 179.476, 352.048 155.790, 336.480 135.440 C 318.912 112.475, 289.169 100.532, 261 105.132 M 278.492 136.797 C 265.880 141.158, 258.140 152.103, 258.044 165.712 C 257.897 186.542, 277.373 201.394, 297.255 195.614 C 307.837 192.538, 315.589 184.431, 318.514 173.380 C 324.715 149.959, 301.581 128.813, 278.492 136.797 M 280.223 149.661 C 275.811 151.835, 272.287 156.220, 270.945 161.205 C 267.820 172.809, 276.545 184.002, 288.710 183.998 C 294.695 183.997, 299.465 181.618, 303.429 176.657 C 306.173 173.224, 306.500 172.096, 306.500 166.079 C 306.500 160.207, 306.133 158.863, 303.634 155.587 C 299.403 150.039, 295.463 148.004, 289 148.027 C 285.975 148.037, 282.025 148.772, 280.223 149.661 M 361.571 190.373 C 359.999 200.859, 349.834 216.197, 339.120 224.251 C 328.113 232.524, 316.545 235.411, 298.500 234.386 C 286.103 233.682, 280.426 234.727, 275.211 238.673 C 269.660 242.873, 267.198 247.851, 263.407 262.543 C 259.478 277.766, 256.689 284.544, 252.050 290.142 C 248.321 294.643, 239.983 300.258, 234 302.299 C 230.142 303.615, 229.785 303.953, 231.500 304.667 C 235.508 306.336, 246.394 305.472, 251.305 303.094 C 260.676 298.558, 268.407 286.335, 273.501 268 C 276.572 256.947, 279.712 251.054, 284.254 247.818 C 287.276 245.665, 288.776 245.465, 306 244.911 C 321.856 244.402, 325.267 244.004, 329.864 242.128 C 349.943 233.935, 364 213.848, 364 193.349 C 364 185.995, 362.503 184.161, 361.571 190.373 M 148.242 294.034 C 144.764 295.432, 143.265 299.552, 145.122 302.613 C 148.327 307.895, 160.448 320.219, 169.974 327.882 C 220.011 368.130, 287.089 375.117, 344.811 346.095 C 355.909 340.515, 370.033 330.825, 377.522 323.654 C 382.955 318.453, 383.856 317.113, 383.347 315 C 383.016 313.625, 382.041 311.938, 381.181 311.250 C 378.076 308.767, 374.659 309.892, 368 315.588 C 349.121 331.736, 325.974 342.986, 300 348.636 C 286.625 351.546, 255.070 351.299, 241.119 348.176 C 210.335 341.283, 187.522 328.613, 164.777 305.775 C 157.780 298.749, 151.705 293.029, 151.277 293.063 C 150.850 293.098, 149.484 293.535, 148.242 294.034 M 323.200 391.200 C 322.540 391.860, 322 394.094, 322 396.165 C 322 400.254, 323.879 402, 328.279 402 C 333.159 402, 335.920 395.062, 332.429 391.571 C 330.573 389.716, 324.912 389.488, 323.200 391.200 M 57 393.334 C 57 393.841, 68.160 422.820, 70.434 428.218 C 71.574 430.925, 72 435.342, 72 444.468 L 72 457 78 457 L 84 457 84 443.790 L 84 430.581 91 412.931 C 94.850 403.224, 98 394.768, 98 394.141 C 98 393.417, 95.874 393, 92.188 393 L 86.375 393 82.438 404.994 C 80.272 411.591, 78.200 416.991, 77.833 416.994 C 77.467 416.997, 75.406 411.712, 73.254 405.250 L 69.341 393.500 63.171 393.202 C 59.777 393.039, 57 393.098, 57 393.334 M 102.321 409.606 C 102.058 410.292, 101.990 419.324, 102.171 429.677 C 102.537 450.644, 103.294 453.549, 109.183 456.594 C 113.629 458.894, 120.360 457.987, 123.881 454.614 C 127.214 451.421, 127.772 451.374, 128.180 454.250 C 128.453 456.170, 129.197 456.545, 133.250 456.805 L 138 457.110 138 433.114 C 138 419.916, 137.662 408.948, 137.250 408.740 C 136.838 408.531, 134.166 408.546, 131.313 408.773 L 126.127 409.184 125.813 426.490 C 125.535 441.842, 125.285 444.033, 123.595 445.898 C 121.118 448.631, 117.518 448.577, 115.557 445.777 C 114.294 443.974, 114 440.297, 114 426.277 C 114 413.151, 113.700 408.987, 112.750 408.945 C 112.063 408.915, 109.542 408.771, 107.150 408.625 C 104.384 408.456, 102.625 408.814, 102.321 409.606 M 149.062 408.813 C 148.352 409.049, 148 417.102, 148 433.083 L 148 457 153.880 457 L 159.760 457 159.925 440.363 C 160.118 420.884, 160.949 418, 166.365 418 C 171.385 418, 172 420.406, 172 440.047 L 172 457 177.917 457 L 183.835 457 184.167 439.412 L 184.500 421.823 187.209 419.495 C 190.469 416.693, 193.744 417.195, 195.077 420.702 C 195.585 422.037, 196 430.751, 196 440.065 L 196 457 202 457 L 208 457 207.994 439.250 C 207.988 419.646, 207.172 415.018, 202.983 410.829 C 200.606 408.452, 199.326 408, 194.977 408 C 190.399 408, 189.397 408.403, 186.317 411.483 L 182.834 414.966 179.549 411.483 C 176.707 408.469, 175.633 408, 171.582 408 C 166.514 408, 161.594 410.009, 160.653 412.463 C 159.740 414.841, 158 414.278, 158 411.605 C 158 409.547, 157.445 409.157, 154.062 408.834 C 151.896 408.628, 149.646 408.618, 149.062 408.813 M 218.243 408.752 C 217.298 409.067, 217 414.906, 217 433.083 L 217 457 223 457 L 229 457 229 442.468 C 229 423.561, 230.808 419, 238.303 419 C 240.340 419, 240.840 418.387, 241.358 415.250 C 242.503 408.325, 242.360 408, 238.174 408 C 234.214 408, 231.129 410.321, 229.535 414.500 C 228.885 416.205, 228.605 415.929, 227.636 412.631 C 226.617 409.160, 226.139 408.739, 222.993 408.549 C 221.065 408.433, 218.927 408.524, 218.243 408.752 M 254.898 410.251 C 252.990 411.516, 250.404 414.695, 249 417.501 C 246.809 421.881, 246.500 423.800, 246.500 433 C 246.500 445.095, 248.039 449.288, 254.358 454.402 C 257.412 456.874, 259.182 457.475, 264.287 457.774 C 268.018 457.993, 272.098 457.573, 274.500 456.724 C 278.335 455.368, 278.513 455.112, 278.810 450.522 C 279.108 445.931, 279.026 445.764, 276.810 446.439 C 268.132 449.081, 266.951 449.222, 263.953 447.981 C 260.772 446.663, 258.458 443.255, 257.854 439 L 257.500 436.500 269.377 436.217 L 281.253 435.934 280.804 428.168 C 280.020 414.637, 274.418 408, 263.780 408 C 259.764 408, 257.386 408.603, 254.898 410.251 M 295.310 410.077 C 293.556 411.201, 291.081 414.231, 289.810 416.810 C 287.821 420.849, 287.500 423.028, 287.500 432.500 C 287.500 442.247, 287.785 444.064, 290 448.448 C 291.375 451.169, 293.686 454.256, 295.136 455.308 C 298.509 457.755, 305.343 458.523, 310.760 457.065 L 315 455.923 315 450.845 C 315 446.022, 314.887 445.805, 312.750 446.521 C 311.512 446.936, 308.700 447.325, 306.500 447.387 C 302.893 447.489, 302.322 447.156, 300.692 444 C 299.236 441.182, 298.952 438.708, 299.235 431.307 C 299.682 419.637, 301.134 417.504, 308.074 418.324 C 312.509 418.848, 312.683 418.765, 313.824 415.611 C 314.471 413.822, 315 411.900, 315 411.340 C 315 407.708, 300.464 406.776, 295.310 410.077 M 322.518 408.815 C 322.233 409.100, 322 420.058, 322 433.167 L 322 457 328.018 457 L 334.036 457 333.768 432.750 L 333.500 408.500 328.268 408.398 C 325.391 408.342, 322.804 408.530, 322.518 408.815 M 343.850 442.095 C 343.767 460.743, 343.655 476.563, 343.600 477.250 C 343.533 478.087, 345.419 478.600, 349.305 478.802 L 355.110 479.103 354.805 465.601 L 354.500 452.098 357.138 454.629 C 358.698 456.125, 361.416 457.380, 363.785 457.698 C 369.501 458.465, 373.444 455.836, 376.769 449.039 C 379.129 444.215, 379.450 442.368, 379.460 433.531 C 379.475 421.486, 377.934 415.734, 373.510 411.310 C 370.707 408.507, 369.484 408, 365.523 408 C 361.645 408, 360.326 408.520, 357.801 411.045 C 354.431 414.415, 354.459 414.416, 353.204 411.022 C 352.481 409.068, 351.534 408.577, 348.157 408.403 L 344 408.190 343.850 442.095 M 397.500 408.959 C 388.725 412.613, 383.921 428.336, 387.414 441.970 C 390.460 453.861, 397.185 458.805, 408.872 457.745 C 417.506 456.962, 419 455.873, 419 450.358 C 419 446.544, 418.730 445.890, 417.371 446.411 C 412.153 448.413, 407.284 449.059, 404.727 448.086 C 401.632 446.910, 398.009 441.610, 398.004 438.250 C 398 436.047, 398.240 436, 409.500 436 L 421 436 421 428.712 C 421 415.633, 414.887 407.936, 404.602 408.063 C 401.796 408.098, 398.600 408.501, 397.500 408.959 M 432.912 410.280 C 428.721 413.105, 427.033 416.318, 427.018 421.500 C 427.004 426.841, 429.713 430.986, 436.492 435.994 C 443.687 441.309, 445.184 444.260, 442.200 447.244 C 440.241 449.203, 439.599 449.306, 435.271 448.350 C 432.647 447.771, 429.712 446.957, 428.750 446.541 C 427.231 445.886, 427 446.378, 427 450.271 C 427 456.532, 428.527 457.500, 438.404 457.500 C 444.566 457.500, 447.136 457.068, 449.164 455.691 C 454.837 451.840, 456.811 441.483, 453.049 435.312 C 451.980 433.559, 448.494 430.397, 445.303 428.285 C 440.084 424.831, 439.500 424.096, 439.500 420.973 C 439.500 417.569, 439.580 417.502, 443.500 417.613 C 445.700 417.675, 448.432 418.043, 449.571 418.432 C 451.320 419.030, 451.895 418.496, 453.269 414.997 L 454.896 410.855 451.480 409.427 C 446.032 407.151, 436.936 407.568, 432.912 410.280 M 401.588 418.286 C 400.246 419.504, 398.855 421.962, 398.495 423.750 L 397.841 427 403.921 427 C 409.382 427, 410 426.792, 410 424.950 C 410 422.177, 407.425 417.377, 405.550 416.658 C 404.702 416.332, 402.945 417.055, 401.588 418.286 M 259.526 419.950 C 258.687 421.573, 258 423.823, 258 424.950 C 258 426.788, 258.618 427, 263.975 427 L 269.950 427 269.338 423.750 C 268.025 416.783, 262.308 414.569, 259.526 419.950 M 358.209 419.496 C 355.587 421.752, 355.500 422.161, 355.500 432.207 C 355.500 443.956, 357.036 448, 361.500 448 C 365.780 448, 367.478 443.907, 367.490 433.560 C 367.506 419.488, 364.143 414.392, 358.209 419.496" stroke="none" fill="black" fill-rule="evenodd"/>
</svg>